<?xml version="1.0" standalone="no"?>
<!DOCTYPE svg PUBLIC "-//W3C//DTD SVG 20010904//EN"
 "http://www.w3.org/TR/2001/REC-SVG-20010904/DTD/svg10.dtd">
<svg version="1.0" xmlns="http://www.w3.org/2000/svg"
 width="500.000000pt" height="500.000000pt" viewBox="0 0 500.000000 500.000000"
 preserveAspectRatio="xMidYMid meet">

<g transform="translate(0.000000,500.000000) scale(0.100000,-0.100000)"
fill="#000000" stroke="none">
<path d="M2492 4218 c-23 -29 -83 -160 -94 -207 -21 -94 11 -148 127 -213 94
-53 107 -111 33 -149 -33 -17 -39 -24 -36 -47 3 -30 32 -43 131 -62 67 -13 91
-33 106 -87 27 -95 5 -227 -51 -316 -60 -94 -135 -148 -277 -198 -70 -25 -124
-62 -280 -192 l-104 -87 -69 0 c-119 0 -252 -34 -470 -120 -119 -48 -109 -49
-233 40 -89 64 -175 150 -175 175 0 54 56 77 230 95 226 24 334 61 365 126 34
71 -11 157 -127 244 -40 30 -98 80 -130 111 -66 63 -71 86 -42 186 25 86 -4
129 -105 152 l-42 9 7 -33 c7 -38 -3 -60 -57 -129 -46 -58 -61 -106 -57 -184
l3 -57 60 -29 c33 -17 112 -49 175 -73 63 -24 129 -55 147 -69 28 -21 33 -31
33 -67 0 -23 -4 -47 -8 -54 -4 -7 -55 -17 -122 -23 -362 -35 -472 -102 -406
-245 32 -70 96 -145 186 -221 67 -56 69 -58 52 -77 -9 -11 -60 -48 -112 -82
-104 -68 -134 -96 -177 -166 -15 -26 -72 -104 -125 -174 -74 -98 -108 -134
-146 -156 -86 -49 -125 -110 -169 -261 -25 -90 -29 -96 -104 -176 -82 -86
-103 -128 -87 -172 13 -34 25 -40 84 -40 71 0 91 19 104 95 13 71 25 105 41
105 26 0 72 46 106 105 40 69 47 74 143 105 36 12 110 44 165 71 76 37 111 49
146 49 l47 0 4 -90 c6 -137 42 -160 139 -90 l42 30 17 -27 c24 -40 45 -54 80
-55 36 -1 77 26 105 70 19 30 23 31 91 32 61 0 76 -4 117 -30 89 -56 80 -103
-33 -189 -41 -31 -81 -68 -90 -84 -14 -25 -13 -30 5 -64 11 -20 36 -45 57 -55
46 -24 304 -77 344 -72 91 14 144 28 144 39 0 22 -34 42 -108 64 -72 21 -112
48 -112 74 0 8 10 23 23 35 18 17 47 25 129 36 80 10 118 20 152 40 82 48 90
86 30 133 -19 14 -34 33 -34 43 0 17 3 17 58 2 33 -9 98 -16 157 -16 102 0
109 2 257 59 l46 19 39 -28 c113 -80 442 -358 470 -396 65 -90 77 -103 112
-117 72 -30 216 3 255 59 9 12 16 37 16 55 0 43 -48 82 -162 132 -47 21 -100
48 -117 60 -43 31 -150 167 -177 226 -23 48 -33 145 -16 145 4 0 42 -7 84 -15
131 -25 203 2 246 93 15 31 28 59 29 61 6 9 34 -25 62 -74 22 -39 51 -69 113
-114 167 -124 186 -141 222 -196 28 -41 40 -74 51 -135 17 -95 26 -115 65
-135 70 -36 169 -31 220 11 57 48 36 110 -68 201 -64 56 -173 189 -221 271
-51 86 -139 298 -166 400 -32 117 -67 185 -116 224 -37 30 -37 30 -22 65 27
67 27 157 -1 323 -27 154 -27 154 -10 248 28 156 5 320 -57 421 -20 30 -5 49
73 91 81 44 98 58 98 81 0 28 -17 32 -85 18 -71 -14 -94 -6 -55 19 57 37 160
147 189 201 64 121 75 231 29 312 -20 36 -64 76 -74 67 -2 -2 1 -22 7 -44 6
-21 9 -74 7 -117 -7 -112 -33 -147 -159 -210 l-96 -48 -50 34 c-84 57 -189 67
-355 35 -47 -9 -69 -7 -127 7 -80 19 -110 15 -193 -26 l-57 -29 -68 17 c-37 9
-85 20 -105 25 -96 22 -131 99 -126 278 2 60 2 110 2 110 -1 0 -6 -6 -12 -12z"/>
</g>
</svg>
